<svg width="16" height="16" viewBox="0 0 16 16" fill="none" xmlns="http://www.w3.org/2000/svg">
<g opacity="0.5" clip-path="url(#clip0_6864_56)">
<path d="M6.58669 6.58667C6.39019 6.76977 6.23259 6.99057 6.12327 7.2359C6.01396 7.48123 5.95518 7.74607 5.95045 8.01461C5.94571 8.28315 5.99511 8.54989 6.0957 8.79893C6.19629 9.04796 6.346 9.27419 6.53592 9.46411C6.72584 9.65402 6.95206 9.80374 7.2011 9.90433C7.45013 10.0049 7.71688 10.0543 7.98542 10.0496C8.25396 10.0448 8.51879 9.98606 8.76412 9.87675C9.00946 9.76744 9.23026 9.60983 9.41336 9.41334" stroke="#475569" stroke-width="1.5" stroke-linecap="round" stroke-linejoin="round"/>
<path d="M7.15332 3.38665C7.43419 3.35165 7.71694 3.33384 7.99999 3.33331C12.6667 3.33331 14.6667 7.99998 14.6667 7.99998C14.3686 8.63806 13.9948 9.23794 13.5533 9.78665" stroke="#475569" stroke-width="1.5" stroke-linecap="round" stroke-linejoin="round"/>
<path d="M4.40665 4.40668C3.08081 5.30976 2.01989 6.55018 1.33331 8.00001C1.33331 8.00001 3.33331 12.6667 7.99998 12.6667C9.27725 12.6701 10.5272 12.2967 11.5933 11.5933" stroke="#475569" stroke-width="1.5" stroke-linecap="round" stroke-linejoin="round"/>
<path d="M1.33331 1.33331L14.6666 14.6666" stroke="#475569" stroke-width="1.5" stroke-linecap="round" stroke-linejoin="round"/>
</g>
<defs>
<clipPath id="clip0_6864_56">
<rect width="16" height="16" fill="white"/>
</clipPath>
</defs>
</svg>
