<svg width="135" height="24" viewBox="0 0 135 24" fill="none" xmlns="http://www.w3.org/2000/svg">
<g clip-path="url(#clip0_2004_780)">
<path fill-rule="evenodd" clip-rule="evenodd" d="M0.5 8.37209V17.3023H3.30335C3.59785 17.3023 3.88948 17.3601 4.1616 17.4723C4.43365 17.5845 4.68093 17.7489 4.88913 17.9562C5.09739 18.1635 5.26261 18.4097 5.37534 18.6805C5.48799 18.9514 5.54603 19.2417 5.54603 19.5349V22.3256H12.2741L20.6841 13.9535V5.02326H17.8808C17.5862 5.02326 17.2946 4.96552 17.0225 4.85332C16.7504 4.74112 16.5032 4.57667 16.295 4.36936C16.0867 4.16205 15.9215 3.91592 15.8087 3.64506C15.6961 3.3742 15.6381 3.08389 15.6381 2.7907V0H8.91004L0.5 8.37209ZM10.0314 16.7442H6.10669V10.6047L11.1527 5.5814H15.0774V11.7209L10.0314 16.7442Z" fill="#0004E8"/>
<path d="M129.772 6.83484C131.189 6.83484 132.327 7.27019 133.188 8.14089C134.063 8.9978 134.5 10.2002 134.5 11.7481V18.4857H131.585V12.142C131.585 11.2436 131.355 10.5595 130.897 10.0896C130.439 9.60589 129.814 9.36405 129.023 9.36405C128.232 9.36405 127.6 9.60589 127.128 10.0896C126.67 10.5595 126.441 11.2436 126.441 12.142V18.4857H123.525V12.142C123.525 11.2436 123.296 10.5595 122.838 10.0896C122.38 9.60589 121.755 9.36405 120.964 9.36405C120.159 9.36405 119.52 9.60589 119.048 10.0896C118.59 10.5595 118.361 11.2436 118.361 12.142V18.4857H115.445V7.00066H118.361V8.38965C118.736 7.90596 119.214 7.52587 119.798 7.24948C120.395 6.97303 121.047 6.83484 121.755 6.83484C122.658 6.83484 123.463 7.02835 124.171 7.4153C124.879 7.78848 125.427 8.32747 125.816 9.03235C126.191 8.36894 126.732 7.83681 127.44 7.43601C128.162 7.03521 128.94 6.83484 129.772 6.83484Z" fill="#000150"/>
<path d="M113.297 7.00067V18.4857H110.361V17.0345C109.986 17.5321 109.493 17.926 108.882 18.2162C108.285 18.4926 107.633 18.6308 106.925 18.6308C106.022 18.6308 105.224 18.4443 104.53 18.0711C103.836 17.6841 103.288 17.1244 102.885 16.3919C102.496 15.6455 102.302 14.761 102.302 13.7383V7.00067H105.217V13.3237C105.217 14.2358 105.446 14.9407 105.904 15.4382C106.363 15.922 106.987 16.1638 107.778 16.1638C108.584 16.1638 109.215 15.922 109.674 15.4382C110.132 14.9407 110.361 14.2358 110.361 13.3237V7.00067H113.297Z" fill="#000150"/>
<path d="M96.2018 18.6723C95.2576 18.6723 94.4104 18.5064 93.6608 18.1747C92.9112 17.8292 92.3141 17.3662 91.8701 16.7858C91.4395 16.2053 91.2034 15.5626 91.1619 14.8578H94.0982C94.1537 15.3 94.369 15.6663 94.744 15.9565C95.1326 16.2468 95.6114 16.3919 96.1805 16.3919C96.7361 16.3919 97.1667 16.2813 97.4717 16.0602C97.7913 15.839 97.9511 15.5557 97.9511 15.2102C97.9511 14.8371 97.7565 14.5606 97.368 14.381C96.9929 14.1875 96.389 13.9802 95.5559 13.759C94.6953 13.5517 93.9871 13.3375 93.4321 13.1164C92.8905 12.8952 92.4184 12.5566 92.0158 12.1006C91.6267 11.6444 91.4327 11.0294 91.4327 10.2555C91.4327 9.61974 91.6133 9.03928 91.9743 8.51407C92.3489 7.98886 92.8765 7.57427 93.5565 7.2702C94.2512 6.96612 95.0631 6.81409 95.9932 6.81409C97.368 6.81409 98.4646 7.15963 99.2838 7.85066C100.103 8.52791 100.554 9.44694 100.637 10.6079H97.8468C97.8053 10.1518 97.6107 9.79249 97.2637 9.52988C96.9307 9.25349 96.4793 9.11524 95.9102 9.11524C95.3826 9.11524 94.9728 9.21202 94.6812 9.40553C94.4037 9.59898 94.2647 9.86851 94.2647 10.214C94.2647 10.601 94.4592 10.8982 94.8478 11.1055C95.2369 11.299 95.8407 11.4993 96.6599 11.7066C97.4924 11.914 98.1798 12.1282 98.7214 12.3493C99.263 12.5705 99.7278 12.9159 100.117 13.3858C100.519 13.842 100.728 14.45 100.742 15.2102C100.742 15.8736 100.554 16.4679 100.179 16.9931C99.8181 17.5183 99.2905 17.9329 98.5964 18.237C97.9163 18.5272 97.1179 18.6723 96.2018 18.6723Z" fill="#000150"/>
<path d="M81.3171 8.65918C81.6922 8.13398 82.2058 7.69863 82.8584 7.35314C83.5245 6.99381 84.2814 6.81409 85.128 6.81409C86.1137 6.81409 87.0023 7.05598 87.794 7.53972C88.5991 8.02341 89.2304 8.71444 89.6891 9.61282C90.1611 10.4974 90.3966 11.527 90.3966 12.7017C90.3966 13.8765 90.1611 14.9199 89.6891 15.8321C89.2304 16.7305 88.5991 17.4285 87.794 17.926C87.0023 18.4235 86.1137 18.6723 85.128 18.6723C84.2814 18.6723 83.5318 18.4995 82.8792 18.154C82.2406 17.8085 81.7197 17.3731 81.3171 16.848V23.9587H78.4017V7.00067H81.3171V8.65918ZM87.4189 12.7017C87.4189 12.0107 87.2731 11.4164 86.9816 10.9189C86.704 10.4075 86.329 10.0205 85.8569 9.75794C85.3988 9.49533 84.8993 9.36406 84.3576 9.36406C83.8301 9.36406 83.3305 9.50225 82.8584 9.77865C82.3998 10.0412 82.0253 10.4282 81.7337 10.9396C81.4562 11.4509 81.3171 12.0522 81.3171 12.7432C81.3171 13.4342 81.4562 14.0355 81.7337 14.5468C82.0253 15.0582 82.3998 15.4521 82.8584 15.7285C83.3305 15.9911 83.8301 16.1224 84.3576 16.1224C84.8993 16.1224 85.3988 15.9842 85.8569 15.7078C86.329 15.4313 86.704 15.0374 86.9816 14.5261C87.2731 14.0147 87.4189 13.4066 87.4189 12.7017Z" fill="#000150"/>
<path d="M74.8128 5.63245C74.2992 5.63245 73.8692 5.4735 73.5221 5.15563C73.1886 4.82393 73.022 4.41622 73.022 3.93249C73.022 3.44877 73.1886 3.04797 73.5221 2.73009C73.8692 2.3984 74.2992 2.23254 74.8128 2.23254C75.3269 2.23254 75.7503 2.3984 76.0833 2.73009C76.4303 3.04797 76.6042 3.44877 76.6042 3.93249C76.6042 4.41622 76.4303 4.82393 76.0833 5.15563C75.7503 5.4735 75.3269 5.63245 74.8128 5.63245ZM76.2498 7.00067V18.4857H73.3343V7.00067H76.2498Z" fill="#000150"/>
<path d="M65.906 18.6723C64.7953 18.6723 63.7962 18.4304 62.9076 17.9467C62.0189 17.4492 61.3181 16.7512 60.8039 15.8529C60.3044 14.9546 60.0543 13.918 60.0543 12.7432C60.0543 11.5684 60.3111 10.5319 60.8247 9.63353C61.3523 8.7352 62.0677 8.04417 62.9698 7.56043C63.8725 7.06291 64.8789 6.81409 65.9896 6.81409C67.1002 6.81409 68.1066 7.06291 69.0093 7.56043C69.9114 8.04417 70.6196 8.7352 71.1331 9.63353C71.6607 10.5319 71.9248 11.5684 71.9248 12.7432C71.9248 13.918 71.654 14.9546 71.1124 15.8529C70.5848 16.7512 69.8632 17.4492 68.9465 17.9467C68.0444 18.4304 67.0307 18.6723 65.906 18.6723ZM65.906 16.1431C66.4336 16.1431 66.9264 16.0187 67.3851 15.7699C67.8571 15.5073 68.2317 15.1204 68.5092 14.609C68.7873 14.0976 68.9258 13.4757 68.9258 12.7432C68.9258 11.6514 68.6342 10.8152 68.0511 10.2348C67.4821 9.64045 66.7807 9.3433 65.9481 9.3433C65.1149 9.3433 64.4141 9.64045 63.8444 10.2348C63.2894 10.8152 63.0118 11.6514 63.0118 12.7432C63.0118 13.835 63.2821 14.6781 63.8237 15.2724C64.3793 15.8529 65.0734 16.1431 65.906 16.1431Z" fill="#000150"/>
<path d="M53.3551 18.6723C52.2444 18.6723 51.2448 18.4304 50.3563 17.9467C49.4677 17.4492 48.7666 16.7512 48.2529 15.8529C47.7532 14.9546 47.5033 13.918 47.5033 12.7432C47.5033 11.5684 47.7601 10.5319 48.2738 9.63353C48.8013 8.7352 49.5164 8.04417 50.4187 7.56043C51.3212 7.06291 52.3277 6.81409 53.4384 6.81409C54.5491 6.81409 55.5556 7.06291 56.4581 7.56043C57.3603 8.04417 58.0684 8.7352 58.582 9.63353C59.1096 10.5319 59.3736 11.5684 59.3736 12.7432C59.3736 13.918 59.1028 14.9546 58.5612 15.8529C58.0336 16.7512 57.3121 17.4492 56.3955 17.9467C55.4931 18.4304 54.4797 18.6723 53.3551 18.6723ZM53.3551 16.1431C53.8827 16.1431 54.3755 16.0187 54.8337 15.7699C55.3057 15.5073 55.6806 15.1204 55.9582 14.609C56.2359 14.0976 56.3747 13.4757 56.3747 12.7432C56.3747 11.6514 56.0832 10.8152 55.5001 10.2348C54.9308 9.64045 54.2297 9.3433 53.3967 9.3433C52.5638 9.3433 51.8626 9.64045 51.2934 10.2348C50.7381 10.8152 50.4604 11.6514 50.4604 12.7432C50.4604 13.835 50.7312 14.6781 51.2726 15.2724C51.8279 15.8529 52.5221 16.1431 53.3551 16.1431Z" fill="#000150"/>
<path d="M40.804 18.6723C39.6933 18.6723 38.6937 18.4304 37.8052 17.9467C36.9166 17.4492 36.2155 16.7512 35.7018 15.8529C35.202 14.9546 34.9521 13.918 34.9521 12.7432C34.9521 11.5684 35.209 10.5319 35.7227 9.63353C36.2502 8.7352 36.9652 8.04417 37.8676 7.56043C38.77 7.06291 39.7766 6.81409 40.8873 6.81409C41.9979 6.81409 43.0045 7.06291 43.9069 7.56043C44.8093 8.04417 45.5173 8.7352 46.031 9.63353C46.5586 10.5319 46.8224 11.5684 46.8224 12.7432C46.8224 13.918 46.5517 14.9546 46.0102 15.8529C45.4826 16.7512 44.7607 17.4492 43.8444 17.9467C42.942 18.4304 41.9285 18.6723 40.804 18.6723ZM40.804 16.1431C41.3315 16.1431 41.8244 16.0187 42.2825 15.7699C42.7546 15.5073 43.1294 15.1204 43.4071 14.609C43.6847 14.0976 43.8236 13.4757 43.8236 12.7432C43.8236 11.6514 43.5321 10.8152 42.9489 10.2348C42.3797 9.64045 41.6786 9.3433 40.8456 9.3433C40.0126 9.3433 39.3115 9.64045 38.7423 10.2348C38.1869 10.8152 37.9093 11.6514 37.9093 12.7432C37.9093 13.835 38.18 14.6781 38.7215 15.2724C39.2768 15.8529 39.971 16.1431 40.804 16.1431Z" fill="#000150"/>
<path d="M29.767 16.1846H34.5568V18.4857H26.8515V4.01544H29.767V16.1846Z" fill="#000150"/>
<path d="M48.2725 20.0285C49.011 22.2148 51.0867 23.7896 53.5319 23.7896H53.8362C56.9 23.7896 59.3838 21.3171 59.3838 18.2672V17.9551H56.3761V18.2672C56.3761 19.6637 55.239 20.7957 53.8362 20.7957H53.5319C52.817 20.7957 52.171 20.5017 51.7095 20.0285H48.2725Z" fill="#000150"/>
</g>
<defs>
<clipPath id="clip0_2004_780">
<rect width="134" height="24" fill="white" transform="translate(0.5)"/>
</clipPath>
</defs>
</svg>
