<svg width="19" height="21" viewBox="0 0 19 21" fill="none" xmlns="http://www.w3.org/2000/svg">
<path fill-rule="evenodd" clip-rule="evenodd" d="M0 7.67442V15.8605H2.5523C2.82043 15.8605 3.08594 15.9134 3.33369 16.0163C3.58138 16.1191 3.80652 16.2698 3.99607 16.4599C4.18569 16.6499 4.33611 16.8755 4.43874 17.1238C4.5413 17.3721 4.59414 17.6382 4.59414 17.907V20.4651H10.7197L18.3766 12.7907V4.60465H15.8243C15.5561 4.60465 15.2906 4.55172 15.0429 4.44888C14.7952 4.34603 14.5701 4.19528 14.3805 4.00524C14.1909 3.81521 14.0405 3.58959 13.9378 3.3413C13.8353 3.09302 13.7824 2.8269 13.7824 2.55814V0H7.6569L0 7.67442ZM8.67782 15.3488H5.1046V9.72093L9.69874 5.11628H13.272V10.7442L8.67782 15.3488Z" fill="#0004E8"/>
</svg>
